<svg width="25" height="25" viewBox="0 0 25 25" fill="none" xmlns="http://www.w3.org/2000/svg">
<g clip-path="url(#clip0_20_213)">
<g clip-path="url(#clip1_20_213)">
<g clip-path="url(#clip2_20_213)">
<path d="M16.9494 6.27197H16.8282C15.0676 6.21897 13.754 4.92928 13.754 3.33924C13.754 1.71388 15.1514 0.397685 16.8562 0.397685C18.561 0.397685 19.9583 1.72271 19.9583 3.33924C19.9595 4.10305 19.647 4.83727 19.0871 5.38635C18.5271 5.93543 17.7638 6.25624 16.9587 6.2808C16.9587 6.27197 16.9587 6.27197 16.9494 6.27197ZM16.8562 1.71388C15.9153 1.71388 15.1514 2.43823 15.1514 3.33041C15.1514 4.20493 15.8687 4.91161 16.791 4.94694C16.8003 4.93811 16.8748 4.93811 16.9587 4.94694C17.3998 4.91936 17.8124 4.73057 18.1096 4.4203C18.4069 4.11004 18.5655 3.70252 18.5523 3.28354C18.539 2.86455 18.3548 2.4668 18.0384 2.17403C17.7221 1.88125 17.2982 1.71629 16.8562 1.71388ZM16.9577 12.7805C16.5944 12.7805 16.2311 12.754 15.8678 12.6922C15.7772 12.6772 15.6906 12.6455 15.613 12.5987C15.5353 12.552 15.4682 12.4912 15.4154 12.4198C15.3626 12.3484 15.3252 12.2678 15.3053 12.1827C15.2854 12.0975 15.2835 12.0095 15.2995 11.9237C15.3153 11.8377 15.3488 11.7556 15.3981 11.682C15.4474 11.6084 15.5115 11.5447 15.5868 11.4947C15.6621 11.4446 15.7471 11.4091 15.8368 11.3903C15.9266 11.3714 16.0195 11.3696 16.11 11.3848C17.2558 11.5703 18.4669 11.3671 19.2774 10.8548C19.7152 10.581 19.9481 10.2365 19.9481 9.89194C19.9481 9.54744 19.7059 9.21176 19.2774 8.93792C18.4669 8.42558 17.2372 8.22241 16.0821 8.41675C15.7001 8.48742 15.3368 8.24008 15.2716 7.8779C15.2064 7.51573 15.4579 7.17122 15.8398 7.10939C17.3583 6.85322 18.9327 7.12705 20.0506 7.83374C20.8704 8.35491 21.3455 9.09693 21.3455 9.89194C21.3455 10.6781 20.8797 11.429 20.0506 11.959C19.2028 12.489 18.1036 12.7805 16.9577 12.7805ZM5.7425 6.2702H5.72387C4.92016 6.24635 4.15776 5.92698 3.59793 5.37964C3.03811 4.83231 2.72477 4.09995 2.72419 3.33748C2.72419 1.71211 4.12155 0.387085 5.82634 0.387085C7.53112 0.387085 8.92849 1.71211 8.92849 3.32864C8.92849 4.92751 7.61496 6.2172 5.93813 6.2702L5.7425 5.60769L5.80771 6.2702H5.7425ZM5.83565 4.94518C5.89155 4.94518 5.93813 4.94518 5.99402 4.95401C6.82312 4.91868 7.54975 4.212 7.54975 3.33748C7.54926 3.02162 7.45119 2.71283 7.26766 2.44924C7.08414 2.18565 6.82319 1.97882 6.51708 1.85429C6.21096 1.72977 5.87307 1.69301 5.54517 1.74855C5.21726 1.8041 4.9137 1.94952 4.67198 2.16685C4.43027 2.38417 4.26099 2.66388 4.18507 2.97142C4.10914 3.27896 4.12989 3.60086 4.24476 3.89734C4.35962 4.19382 4.56357 4.45189 4.8314 4.63969C5.09923 4.82748 5.41921 4.93675 5.75181 4.95401C5.76113 4.94518 5.79839 4.94518 5.83565 4.94518ZM5.73318 12.7805C4.58734 12.7805 3.48808 12.489 2.64035 11.959C1.82056 11.4378 1.34546 10.687 1.34546 9.89194C1.34546 9.10576 1.82056 8.35491 2.64035 7.83374C3.75824 7.12705 5.3326 6.85322 6.85107 7.10939C7.23302 7.17122 7.48454 7.51573 7.41933 7.8779C7.35412 8.24008 6.99081 8.48742 6.60886 8.41675C5.45371 8.22241 4.23334 8.42558 3.41356 8.93792C2.97572 9.21176 2.74282 9.54744 2.74282 9.89194C2.74282 10.2365 2.98503 10.581 3.41356 10.8548C4.22403 11.3671 5.43508 11.5703 6.58091 11.3848C6.96286 11.323 7.32618 11.5703 7.39139 11.9237C7.4566 12.2858 7.20507 12.6303 6.82312 12.6922C6.45981 12.754 6.0965 12.7805 5.73318 12.7805ZM11.3599 12.8688H11.2388C9.47812 12.8158 8.16459 11.5261 8.16459 9.93611C8.16459 8.31075 9.56196 6.99455 11.2667 6.99455C12.9715 6.99455 14.3689 8.31958 14.3689 9.93611C14.37 10.6999 14.0575 11.4341 13.4976 11.9832C12.9377 12.5323 12.1743 12.8531 11.3692 12.8777C11.3692 12.8688 11.3692 12.8688 11.3599 12.8688ZM11.2667 8.31074C10.3258 8.31074 9.56196 9.03509 9.56196 9.92728C9.56196 10.8018 10.2793 11.5085 11.2015 11.5438C11.2108 11.535 11.2854 11.535 11.3692 11.5438C12.2728 11.4996 12.9715 10.793 12.9808 9.92728C12.9808 9.04393 12.2169 8.31074 11.2667 8.31074ZM11.3608 19.3871C10.2429 19.3871 9.12505 19.1132 8.25868 18.5567C7.4389 18.0356 6.96379 17.2935 6.96379 16.4985C6.96379 15.7123 7.42958 14.9527 8.25868 14.4315C10.0007 13.3361 12.7302 13.3361 14.463 14.4315C15.2828 14.9527 15.7579 15.6947 15.7579 16.4897C15.7579 17.2759 15.2921 18.0356 14.463 18.5567C13.5966 19.1044 12.4787 19.3871 11.3608 19.3871ZM9.03189 15.5445C8.59405 15.8183 8.36116 16.1629 8.36116 16.5074C8.36116 16.8519 8.60337 17.1875 9.03189 17.4614C10.2895 18.2652 12.4228 18.2652 13.6805 17.4614C14.1183 17.1875 14.3512 16.843 14.3512 16.4985C14.3512 16.154 14.109 15.8183 13.6805 15.5445C12.4321 14.7407 10.2988 14.7495 9.03189 15.5445Z" fill="white"/>
</g>
</g>
</g>
<defs>
<clipPath id="clip0_20_213">
<rect width="24" height="24" fill="white" transform="translate(0.927246 0.114899)"/>
</clipPath>
<clipPath id="clip1_20_213">
<rect width="24" height="22" fill="white" transform="translate(0.345459 0.387085)"/>
</clipPath>
<clipPath id="clip2_20_213">
<rect width="25" height="23" fill="white" transform="translate(-0.0727539 0.114899)"/>
</clipPath>
</defs>
</svg>
