<svg width="25" height="25" viewBox="0 0 25 25" fill="none" xmlns="http://www.w3.org/2000/svg">
<g clip-path="url(#clip0_20_164)">
<path d="M15.3455 21.2412H9.34546C3.91546 21.2412 1.59546 19.1146 1.59546 14.1371V8.63708C1.59546 3.65958 3.91546 1.53291 9.34546 1.53291H14.3455C14.7555 1.53291 15.0955 1.84458 15.0955 2.22041C15.0955 2.59625 14.7555 2.90791 14.3455 2.90791H9.34546C4.73546 2.90791 3.09546 4.41125 3.09546 8.63708V14.1371C3.09546 18.3629 4.73546 19.8662 9.34546 19.8662H15.3455C19.9555 19.8662 21.5955 18.3629 21.5955 14.1371V9.55375C21.5955 9.17791 21.9355 8.86625 22.3455 8.86625C22.7555 8.86625 23.0955 9.17791 23.0955 9.55375V14.1371C23.0955 19.1146 20.7755 21.2412 15.3455 21.2412Z" fill="#CCCCCC"/>
<path d="M22.3455 10.2394H18.3455C14.9255 10.2394 13.5955 9.02025 13.5955 5.88525V2.21859C13.5955 1.94359 13.7755 1.68692 14.0555 1.58609C14.3355 1.47609 14.6555 1.54025 14.8755 1.73275L22.8755 9.06609C22.9797 9.1624 23.0506 9.28482 23.0792 9.41795C23.1078 9.55109 23.0929 9.689 23.0363 9.81437C22.9796 9.93974 22.8839 10.047 22.7609 10.1226C22.638 10.1982 22.4935 10.2389 22.3455 10.2394ZM15.0955 3.87775V5.88525C15.0955 8.25025 15.7655 8.86442 18.3455 8.86442H20.5355L15.0955 3.87775Z" fill="#CCCCCC"/>
</g>
<defs>
<clipPath id="clip0_20_164">
<rect width="24" height="24" fill="white" transform="translate(0.927246 0.114899)"/>
</clipPath>
</defs>
</svg>
