<svg width="27" height="29" viewBox="0 0 27 29" fill="none" xmlns="http://www.w3.org/2000/svg">
<path d="M13.5225 3.51625C9.79876 3.51625 6.77251 6.76667 6.77251 10.7663V14.2583C6.77251 14.9954 6.48001 16.1192 6.13126 16.7475L4.83751 19.0554C4.03876 20.4813 4.59001 22.0642 6.05251 22.5958C10.9013 24.3358 16.1325 24.3358 20.9813 22.5958C22.3425 22.1125 22.9388 20.3846 22.1963 19.0554L20.9025 16.7475C20.565 16.1192 20.2725 14.9954 20.2725 14.2583V10.7663C20.2725 6.77875 17.235 3.51625 13.5225 3.51625Z" stroke="white" stroke-width="1.5" stroke-miterlimit="10" stroke-linecap="round"/>
<path d="M15.6038 3.86666C14.2433 3.4505 12.8017 3.4505 11.4413 3.86666C11.7675 2.9725 12.5775 2.34416 13.5225 2.34416C14.4675 2.34416 15.2775 2.9725 15.6038 3.86666V3.86666Z" stroke="white" stroke-width="1.5" stroke-miterlimit="10" stroke-linecap="round" stroke-linejoin="round"/>
<path d="M16.8975 23.0308C16.8975 25.0246 15.3787 26.6558 13.5225 26.6558C12.6 26.6558 11.745 26.245 11.1375 25.5925C10.5054 24.9126 10.1495 23.9917 10.1475 23.0308" stroke="white" stroke-width="1.5" stroke-miterlimit="10"/>
</svg>
