<svg width="26" height="24" viewBox="0 0 26 24" fill="none" xmlns="http://www.w3.org/2000/svg">
<g clip-path="url(#clip0_20_196)">
<path d="M16.4009 12.0379C17.3405 11.3309 18.0263 10.3613 18.3629 9.26403C18.6995 8.1668 18.6702 6.99649 18.2791 5.91593C17.8879 4.83536 17.1544 3.89828 16.1806 3.23503C15.2067 2.57179 14.041 2.21538 12.8455 2.21538C11.65 2.21538 10.4843 2.57179 9.51045 3.23503C8.53661 3.89828 7.8031 4.83536 7.41197 5.91593C7.02084 6.99649 6.99155 8.1668 7.32816 9.26403C7.66478 10.3613 8.35056 11.3309 9.2901 12.0379C7.68017 12.6549 6.27546 13.6782 5.22571 14.9987C4.17595 16.3192 3.52051 17.8874 3.32927 19.5362C3.31542 19.6566 3.3265 19.7784 3.36187 19.8947C3.39725 20.011 3.45621 20.1195 3.53542 20.214C3.69537 20.4048 3.92802 20.527 4.18218 20.5537C4.43635 20.5805 4.69121 20.5096 4.8907 20.3566C5.0902 20.2036 5.21798 19.981 5.24593 19.7379C5.45637 17.946 6.34963 16.2911 7.75506 15.0893C9.16049 13.8875 10.9795 13.2232 12.8647 13.2232C14.7498 13.2232 16.5689 13.8875 17.9743 15.0893C19.3797 16.2911 20.273 17.946 20.4834 19.7379C20.5095 19.9632 20.6218 20.1712 20.7988 20.3218C20.9758 20.4725 21.2049 20.5551 21.4418 20.5537H21.5472C21.7984 20.5261 22.028 20.4046 22.186 20.2157C22.3439 20.0269 22.4175 19.7859 22.3905 19.5454C22.1984 17.8919 21.5394 16.3197 20.4842 14.9971C19.4291 13.6746 18.0176 12.6516 16.4009 12.0379ZM12.8455 11.3871C12.0874 11.3871 11.3462 11.172 10.7158 10.7691C10.0854 10.3662 9.59411 9.79358 9.30398 9.12359C9.01384 8.45359 8.93793 7.71635 9.08584 7.00508C9.23375 6.29382 9.59884 5.64048 10.1349 5.12769C10.671 4.6149 11.3541 4.26568 12.0977 4.1242C12.8413 3.98272 13.612 4.05534 14.3125 4.33286C15.0129 4.61038 15.6116 5.08034 16.0328 5.68332C16.454 6.2863 16.6789 6.99522 16.6789 7.72042C16.6789 8.69288 16.275 9.62551 15.5561 10.3131C14.8372 11.0008 13.8622 11.3871 12.8455 11.3871Z" fill="#D1D1D1"/>
</g>
<defs>
<clipPath id="clip0_20_196">
<rect width="25" height="23" fill="white" transform="translate(0.927246 0.114899)"/>
</clipPath>
</defs>
</svg>
